<svg width="160" height="16" viewBox="0 0 160 16" fill="none" xmlns="http://www.w3.org/2000/svg">
<g clip-path="url(#clip0)">
<path d="M10 0.5H9.91875C9.63904 0.502657 9.36813 0.598133 9.14856 0.771437C8.92899 0.944741 8.77319 1.18606 8.70563 1.4575C8.63327 1.72177 8.47608 1.95495 8.25824 2.12116C8.04041 2.28737 7.774 2.3774 7.5 2.3774C7.226 2.3774 6.95959 2.28737 6.74176 2.12116C6.52392 1.95495 6.36673 1.72177 6.29437 1.4575C6.22681 1.18606 6.07101 0.944741 5.85144 0.771437C5.63187 0.598133 5.36096 0.502657 5.08125 0.5L5 0.5C4.1715 0.500992 3.37722 0.830551 2.79139 1.41639C2.20555 2.00222 1.87599 2.7965 1.875 3.625V13.625C1.875 14.1223 2.07254 14.5992 2.42417 14.9508C2.77581 15.3025 3.25272 15.5 3.75 15.5H5.08125C5.36096 15.4973 5.63187 15.4019 5.85144 15.2286C6.07101 15.0553 6.22681 14.8139 6.29437 14.5425C6.36673 14.2782 6.52392 14.045 6.74176 13.8788C6.95959 13.7126 7.226 13.6226 7.5 13.6226C7.774 13.6226 8.04041 13.7126 8.25824 13.8788C8.47608 14.045 8.63327 14.2782 8.70563 14.5425C8.77319 14.8139 8.92899 15.0553 9.14856 15.2286C9.36813 15.4019 9.63904 15.4973 9.91875 15.5H11.25C11.7473 15.5 12.2242 15.3025 12.5758 14.9508C12.9275 14.5992 13.125 14.1223 13.125 13.625V3.625C13.124 2.7965 12.7944 2.00222 12.2086 1.41639C11.6228 0.830551 10.8285 0.500992 10 0.5V0.5ZM11.25 14.25L9.91063 14.2106C9.76383 13.6803 9.44614 13.2132 9.00682 12.8817C8.56751 12.5503 8.03112 12.3731 7.48083 12.3776C6.93055 12.3821 6.39711 12.568 5.96326 12.9065C5.52941 13.2451 5.21938 13.7173 5.08125 14.25H3.75C3.58424 14.25 3.42527 14.1842 3.30806 14.0669C3.19085 13.9497 3.125 13.7908 3.125 13.625V11.125H4.375C4.54076 11.125 4.69973 11.0592 4.81694 10.9419C4.93415 10.8247 5 10.6658 5 10.5C5 10.3342 4.93415 10.1753 4.81694 10.0581C4.69973 9.94085 4.54076 9.875 4.375 9.875H3.125V3.625C3.125 3.12772 3.32254 2.65081 3.67417 2.29917C4.02581 1.94754 4.50272 1.75 5 1.75L5.08937 1.78937C5.23576 2.31652 5.55062 2.78128 5.98589 3.11272C6.42115 3.44416 6.95291 3.62408 7.5 3.625C8.05447 3.62028 8.59223 3.43456 9.03144 3.0961C9.47065 2.75764 9.78727 2.28497 9.93312 1.75H10C10.4973 1.75 10.9742 1.94754 11.3258 2.29917C11.6775 2.65081 11.875 3.12772 11.875 3.625V9.875H10.625C10.4592 9.875 10.3003 9.94085 10.1831 10.0581C10.0658 10.1753 10 10.3342 10 10.5C10 10.6658 10.0658 10.8247 10.1831 10.9419C10.3003 11.0592 10.4592 11.125 10.625 11.125H11.875V13.625C11.875 13.7908 11.8092 13.9497 11.6919 14.0669C11.5747 14.1842 11.4158 14.25 11.25 14.25Z" fill="white"/>
<path d="M8.125 9.875H6.875C6.70924 9.875 6.55027 9.94085 6.43306 10.0581C6.31585 10.1753 6.25 10.3342 6.25 10.5C6.25 10.6658 6.31585 10.8247 6.43306 10.9419C6.55027 11.0592 6.70924 11.125 6.875 11.125H8.125C8.29076 11.125 8.44973 11.0592 8.56694 10.9419C8.68415 10.8247 8.75 10.6658 8.75 10.5C8.75 10.3342 8.68415 10.1753 8.56694 10.0581C8.44973 9.94085 8.29076 9.875 8.125 9.875Z" fill="white"/>
</g>
<path d="M29.2041 6.02734C30.1338 6.02734 30.8766 6.33952 31.4326 6.96387C31.9932 7.58366 32.2734 8.40169 32.2734 9.41797V9.53418C32.2734 10.2314 32.139 10.8558 31.8701 11.4072C31.6012 11.9541 31.2139 12.3802 30.708 12.6855C30.2067 12.9863 29.6279 13.1367 28.9717 13.1367C27.9782 13.1367 27.1784 12.8063 26.5723 12.1455C25.9661 11.4801 25.6631 10.5892 25.6631 9.47266V8.85742C25.6631 7.30339 25.9502 6.06836 26.5244 5.15234C27.1032 4.23633 27.9554 3.67806 29.0811 3.47754C29.7191 3.36361 30.1497 3.22461 30.373 3.06055C30.5964 2.89648 30.708 2.6709 30.708 2.38379H31.7471C31.7471 2.95345 31.6172 3.39779 31.3574 3.7168C31.1022 4.03581 30.6921 4.26139 30.127 4.39355L29.1836 4.60547C28.4316 4.7832 27.8665 5.08398 27.4883 5.50781C27.1146 5.92708 26.8708 6.48763 26.7568 7.18945C27.4268 6.41471 28.2425 6.02734 29.2041 6.02734ZM28.958 7.06641C28.3382 7.06641 27.846 7.27604 27.4814 7.69531C27.1169 8.11003 26.9346 8.68652 26.9346 9.4248V9.53418C26.9346 10.3271 27.1169 10.9561 27.4814 11.4209C27.8506 11.8812 28.3473 12.1113 28.9717 12.1113C29.6006 12.1113 30.0973 11.8789 30.4619 11.4141C30.8265 10.9492 31.0088 10.2702 31.0088 9.37695C31.0088 8.67969 30.8242 8.12142 30.4551 7.70215C30.0905 7.27832 29.5915 7.06641 28.958 7.06641ZM38.3574 5.60352H39.6221V13H38.3574V7.60645L34.9463 13H33.6816V5.60352H34.9463V11.0039L38.3574 5.60352ZM47.7158 5.60352V13H46.4443V6.64941H43.9287L43.7783 9.41797C43.6963 10.6895 43.4821 11.5986 43.1357 12.1455C42.7939 12.6924 42.2493 12.9772 41.502 13H40.9961V11.8857L41.3584 11.8584C41.7686 11.8128 42.0625 11.5758 42.2402 11.1475C42.418 10.7191 42.5319 9.92611 42.582 8.76855L42.7188 5.60352H47.7158ZM52.8154 13.1367C51.8128 13.1367 50.9971 12.8086 50.3682 12.1523C49.7393 11.4915 49.4248 10.6097 49.4248 9.50684V9.27441C49.4248 8.54069 49.5638 7.88672 49.8418 7.3125C50.1243 6.73372 50.5163 6.28255 51.0176 5.95898C51.5234 5.63086 52.0703 5.4668 52.6582 5.4668C53.6198 5.4668 54.3672 5.78353 54.9004 6.41699C55.4336 7.05046 55.7002 7.95736 55.7002 9.1377V9.66406H50.6895C50.7077 10.3932 50.9196 10.9834 51.3252 11.4346C51.7354 11.8812 52.2549 12.1045 52.8838 12.1045C53.3304 12.1045 53.7087 12.0133 54.0186 11.8311C54.3285 11.6488 54.5996 11.4072 54.832 11.1064L55.6045 11.708C54.9847 12.6605 54.055 13.1367 52.8154 13.1367ZM52.6582 6.50586C52.1478 6.50586 51.7194 6.69271 51.373 7.06641C51.0267 7.43555 50.8125 7.95508 50.7305 8.625H54.4355V8.5293C54.3991 7.88672 54.2259 7.38997 53.916 7.03906C53.6061 6.68359 53.1868 6.50586 52.6582 6.50586ZM62.584 6.62891H60.1025V13H58.8379V6.62891H56.4043V5.60352H62.584V6.62891ZM65.1953 8.15332H67.1162C67.9548 8.16243 68.6178 8.38118 69.1055 8.80957C69.5931 9.23796 69.8369 9.81901 69.8369 10.5527C69.8369 11.291 69.5863 11.8835 69.085 12.3301C68.5837 12.7767 67.9092 13 67.0615 13H63.9307V5.60352H65.1953V8.15332ZM72.4756 13H71.2041V5.60352H72.4756V13ZM65.1953 9.18555V11.9678H67.0752C67.5492 11.9678 67.916 11.847 68.1758 11.6055C68.4355 11.3594 68.5654 11.0244 68.5654 10.6006C68.5654 10.1904 68.4378 9.85547 68.1826 9.5957C67.932 9.33138 67.5788 9.19466 67.123 9.18555H65.1953ZM84.1992 13H82.9346V9.8418H79.5371V13H78.2656V5.60352H79.5371V8.80957H82.9346V5.60352H84.1992V13ZM90.8027 13C90.7298 12.8542 90.6706 12.5944 90.625 12.2207C90.0371 12.8314 89.3353 13.1367 88.5195 13.1367C87.7904 13.1367 87.1911 12.9316 86.7217 12.5215C86.2568 12.1068 86.0244 11.5827 86.0244 10.9492C86.0244 10.179 86.3161 9.58203 86.8994 9.1582C87.4873 8.72982 88.3122 8.51562 89.374 8.51562H90.6045V7.93457C90.6045 7.49251 90.4723 7.1416 90.208 6.88184C89.9437 6.61751 89.554 6.48535 89.0391 6.48535C88.5879 6.48535 88.2096 6.59928 87.9043 6.82715C87.599 7.05501 87.4463 7.33073 87.4463 7.6543H86.1748C86.1748 7.28516 86.3047 6.92969 86.5645 6.58789C86.8288 6.24154 87.1842 5.9681 87.6309 5.76758C88.082 5.56706 88.5765 5.4668 89.1143 5.4668C89.9665 5.4668 90.6341 5.68099 91.1172 6.10938C91.6003 6.5332 91.8509 7.11882 91.8691 7.86621V11.2705C91.8691 11.9495 91.9557 12.4896 92.1289 12.8906V13H90.8027ZM88.7041 12.0361C89.1006 12.0361 89.4766 11.9336 89.832 11.7285C90.1875 11.5234 90.445 11.2568 90.6045 10.9287V9.41113H89.6133C88.0638 9.41113 87.2891 9.86458 87.2891 10.7715C87.2891 11.168 87.4212 11.4779 87.6855 11.7012C87.9499 11.9245 88.2894 12.0361 88.7041 12.0361ZM103.374 13H102.109V6.64941H98.7051V13H97.4336V5.60352H103.374V13ZM111.652 9.38379C111.652 10.5094 111.395 11.4163 110.88 12.1045C110.365 12.7926 109.668 13.1367 108.788 13.1367C107.89 13.1367 107.184 12.8519 106.669 12.2822V15.8438H105.404V5.60352H106.56L106.621 6.42383C107.136 5.78581 107.852 5.4668 108.768 5.4668C109.656 5.4668 110.358 5.80176 110.873 6.47168C111.393 7.1416 111.652 8.07357 111.652 9.26758V9.38379ZM110.388 9.24023C110.388 8.40625 110.21 7.74772 109.854 7.26465C109.499 6.78158 109.011 6.54004 108.392 6.54004C107.626 6.54004 107.052 6.87956 106.669 7.55859V11.0928C107.047 11.7673 107.626 12.1045 108.405 12.1045C109.011 12.1045 109.492 11.8652 109.848 11.3867C110.208 10.9036 110.388 10.1882 110.388 9.24023ZM116.335 13.1367C115.332 13.1367 114.517 12.8086 113.888 12.1523C113.259 11.4915 112.944 10.6097 112.944 9.50684V9.27441C112.944 8.54069 113.083 7.88672 113.361 7.3125C113.644 6.73372 114.036 6.28255 114.537 5.95898C115.043 5.63086 115.59 5.4668 116.178 5.4668C117.139 5.4668 117.887 5.78353 118.42 6.41699C118.953 7.05046 119.22 7.95736 119.22 9.1377V9.66406H114.209C114.227 10.3932 114.439 10.9834 114.845 11.4346C115.255 11.8812 115.774 12.1045 116.403 12.1045C116.85 12.1045 117.228 12.0133 117.538 11.8311C117.848 11.6488 118.119 11.4072 118.352 11.1064L119.124 11.708C118.504 12.6605 117.575 13.1367 116.335 13.1367ZM116.178 6.50586C115.667 6.50586 115.239 6.69271 114.893 7.06641C114.546 7.43555 114.332 7.95508 114.25 8.625H117.955V8.5293C117.919 7.88672 117.745 7.38997 117.436 7.03906C117.126 6.68359 116.706 6.50586 116.178 6.50586ZM124.948 11.3252L127.464 5.60352H129.043V13H127.778V7.62012L125.386 13H124.511L122.07 7.50391V13H120.806V5.60352H122.446L124.948 11.3252ZM132.461 8.15332H134.382C135.22 8.16243 135.883 8.38118 136.371 8.80957C136.859 9.23796 137.103 9.81901 137.103 10.5527C137.103 11.291 136.852 11.8835 136.351 12.3301C135.849 12.7767 135.175 13 134.327 13H131.196V5.60352H132.461V8.15332ZM132.461 9.18555V11.9678H134.341C134.815 11.9678 135.182 11.847 135.441 11.6055C135.701 11.3594 135.831 11.0244 135.831 10.6006C135.831 10.1904 135.703 9.85547 135.448 9.5957C135.198 9.33138 134.844 9.19466 134.389 9.18555H132.461ZM141.751 13.1367C140.748 13.1367 139.933 12.8086 139.304 12.1523C138.675 11.4915 138.36 10.6097 138.36 9.50684V9.27441C138.36 8.54069 138.499 7.88672 138.777 7.3125C139.06 6.73372 139.452 6.28255 139.953 5.95898C140.459 5.63086 141.006 5.4668 141.594 5.4668C142.555 5.4668 143.303 5.78353 143.836 6.41699C144.369 7.05046 144.636 7.95736 144.636 9.1377V9.66406H139.625C139.643 10.3932 139.855 10.9834 140.261 11.4346C140.671 11.8812 141.19 12.1045 141.819 12.1045C142.266 12.1045 142.644 12.0133 142.954 11.8311C143.264 11.6488 143.535 11.4072 143.768 11.1064L144.54 11.708C143.92 12.6605 142.991 13.1367 141.751 13.1367ZM141.594 6.50586C141.083 6.50586 140.655 6.69271 140.309 7.06641C139.962 7.43555 139.748 7.95508 139.666 8.625H143.371V8.5293C143.335 7.88672 143.161 7.38997 142.852 7.03906C142.542 6.68359 142.122 6.50586 141.594 6.50586ZM152.354 9.38379C152.354 10.5094 152.096 11.4163 151.581 12.1045C151.066 12.7926 150.369 13.1367 149.489 13.1367C148.591 13.1367 147.885 12.8519 147.37 12.2822V15.8438H146.105V5.60352H147.261L147.322 6.42383C147.837 5.78581 148.553 5.4668 149.469 5.4668C150.357 5.4668 151.059 5.80176 151.574 6.47168C152.094 7.1416 152.354 8.07357 152.354 9.26758V9.38379ZM151.089 9.24023C151.089 8.40625 150.911 7.74772 150.556 7.26465C150.2 6.78158 149.713 6.54004 149.093 6.54004C148.327 6.54004 147.753 6.87956 147.37 7.55859V11.0928C147.748 11.7673 148.327 12.1045 149.106 12.1045C149.713 12.1045 150.193 11.8652 150.549 11.3867C150.909 10.9036 151.089 10.1882 151.089 9.24023ZM156.305 11.1475L158.027 5.60352H159.381L156.407 14.1416C155.947 15.3721 155.215 15.9873 154.213 15.9873L153.974 15.9668L153.502 15.8779V14.8525L153.844 14.8799C154.272 14.8799 154.605 14.7933 154.842 14.6201C155.083 14.4469 155.282 14.1302 155.437 13.6699L155.717 12.918L153.078 5.60352H154.459L156.305 11.1475Z" fill="white"/>
<defs>
<clipPath id="clip0">
<rect width="15" height="15" fill="white" transform="translate(0 0.5)"/>
</clipPath>
</defs>
</svg>
